<?xml version="1.0" standalone="no"?>
<!DOCTYPE svg PUBLIC "-//W3C//DTD SVG 20010904//EN"
 "http://www.w3.org/TR/2001/REC-SVG-20010904/DTD/svg10.dtd">
<svg version="1.0" xmlns="http://www.w3.org/2000/svg"
 width="135.000000pt" height="18.000000pt" viewBox="0 0 135.000000 18.000000"
 preserveAspectRatio="xMidYMid meet">

<g transform="translate(0.000000,18.000000) scale(0.100000,-0.100000)"
fill="#000000" stroke="none">
<path d="M0 90 c0 -53 4 -90 10 -90 6 0 10 16 10 35 0 47 25 47 47 0 9 -19 23
-35 30 -35 9 0 7 9 -7 32 -17 28 -17 34 -4 52 32 46 4 96 -54 96 l-32 0 0 -90z
m73 48 c13 -20 -6 -48 -34 -48 -15 0 -19 7 -19 36 0 31 3 35 21 32 12 -2 27
-10 32 -20z"/>
<path d="M130 90 l0 -90 50 0 c28 0 50 5 50 10 0 6 -18 10 -40 10 -38 0 -40 2
-40 30 0 28 3 30 35 30 19 0 35 5 35 10 0 6 -16 10 -35 10 -32 0 -35 2 -35 30
0 28 3 30 35 30 19 0 35 5 35 10 0 6 -20 10 -45 10 l-45 0 0 -90z"/>
<path d="M240 170 c0 -5 11 -10 25 -10 25 0 25 -1 25 -80 0 -47 4 -80 10 -80
6 0 10 33 10 80 0 73 2 80 20 80 11 0 20 5 20 10 0 6 -25 10 -55 10 -30 0 -55
-4 -55 -10z"/>
<path d="M380 90 c0 -53 4 -90 10 -90 6 0 10 16 10 35 0 46 21 46 43 0 9 -19
21 -35 27 -35 14 0 13 7 -7 36 -13 21 -14 30 -5 45 32 50 6 99 -52 99 -26 0
-26 0 -26 -90z m65 35 c0 -23 -5 -31 -22 -33 -20 -3 -23 1 -23 33 0 32 3 36
23 33 17 -2 22 -10 22 -33z"/>
<path d="M510 161 c-5 -11 -10 -43 -10 -71 0 -63 13 -90 45 -90 33 0 55 36 55
90 0 25 -7 56 -16 68 -19 27 -60 29 -74 3z m60 -20 c25 -48 1 -131 -34 -118
-12 5 -16 20 -16 65 0 32 3 62 7 65 12 13 32 7 43 -12z"/>
<path d="M750 90 c0 -53 4 -90 10 -90 6 0 10 16 10 35 0 29 4 35 21 35 39 0
59 19 59 55 0 39 -20 55 -69 55 l-31 0 0 -90z m75 35 c0 -25 -4 -30 -27 -33
-26 -3 -28 -1 -28 33 0 34 2 36 28 33 23 -3 27 -8 27 -33z"/>
<path d="M886 158 c-9 -12 -16 -43 -16 -68 0 -75 45 -114 84 -74 22 21 22 127
0 148 -22 22 -50 20 -68 -6z m62 -66 c2 -51 0 -63 -14 -69 -23 -9 -44 22 -44
65 0 43 17 74 38 70 13 -3 18 -17 20 -66z"/>
<path d="M1000 109 c0 -39 5 -79 10 -90 12 -21 50 -25 68 -7 15 15 17 168 2
168 -6 0 -10 -32 -10 -75 0 -60 -3 -77 -16 -82 -24 -9 -34 15 -34 90 0 38 -4
67 -10 67 -6 0 -10 -30 -10 -71z"/>
<path d="M1144 159 c-13 -15 -19 -36 -19 -69 0 -57 25 -93 64 -88 13 2 26 8
28 14 2 7 -5 10 -20 7 -31 -6 -50 18 -50 67 0 49 19 73 50 67 15 -3 22 0 20 7
-7 21 -52 18 -73 -5z"/>
<path d="M1250 90 c0 -53 4 -90 10 -90 6 0 10 18 10 40 0 36 3 40 25 40 23 0
25 -4 25 -40 0 -22 5 -40 10 -40 6 0 10 37 10 90 0 53 -4 90 -10 90 -5 0 -10
-18 -10 -40 0 -36 -2 -40 -25 -40 -22 0 -25 4 -25 40 0 22 -4 40 -10 40 -6 0
-10 -37 -10 -90z"/>
</g>
</svg>
